<svg xmlns:mydata="http://www.w3.org/2000/svg" mydata:contrastcolor="000000" mydata:template="Contrast" mydata:presentation="2.5" mydata:layouttype="undefined" mydata:specialfontid="undefined" mydata:id1="518" mydata:id2="521" mydata:companyname="ansor" mydata:companytagline="Coders" version="1.1" xmlns="http://www.w3.org/2000/svg" xmlns:xlink="http://www.w3.org/1999/xlink" viewBox="0 45 550 380"><g fill="#44d62c" fill-rule="nonzero" stroke="none" stroke-width="1" stroke-linecap="butt" stroke-linejoin="miter" stroke-miterlimit="10" stroke-dasharray="" stroke-dashoffset="0" font-family="none" font-weight="none" font-size="none" text-anchor="none" style="mix-blend-mode: normal"><g data-paper-data="{&quot;isGlobalGroup&quot;:true,&quot;bounds&quot;:{&quot;x&quot;:81.40822646666695,&quot;y&quot;:146.22406472148924,&quot;width&quot;:387.18354706666605,&quot;height&quot;:177.55187055702157}}"><g data-paper-data="{&quot;textHeightFactor&quot;:0.31645569620253167,&quot;isSecondaryText&quot;:true}"><path d="M118.48089,276.18648c-0.54861,0 -1.06495,0.2259 -1.45221,0.61316l-1.96855,1.96855c-0.38726,0.38726 -0.61316,0.9036 -0.61316,1.45221v14.5221c0,0.54861 0.2259,1.06495 0.61316,1.45221l1.96855,1.96855c0.38726,0.38726 0.9036,0.61316 1.45221,0.61316h7.26105c0.54861,0 1.06495,-0.2259 1.45221,-0.61316l2.00082,-1.96855c0.38726,-0.38726 0.58088,-0.9036 0.58088,-1.45221v-4.06619h-4.13073v3.19486l-0.74224,0.77451h-5.55067l-0.77451,-0.77451v-12.77945l0.77451,-0.77451h5.55067l0.74224,0.77451v3.19486h4.13073v-4.06619c0,-0.54861 -0.19363,-1.06495 -0.58088,-1.45221l-2.00082,-1.96855c-0.38726,-0.38726 -0.9036,-0.61316 -1.45221,-0.61316zM125.74194,277.99367c0.06454,0 0.12909,0.06454 0.16136,0.09681l2.00082,1.96855c0.03227,0.03227 0.06454,0.09681 0.06454,0.16136v2.25899h-0.51634v-2.12991l-1.77492,-1.83947h-7.06742l-1.83947,1.83947v14.26393l1.83947,1.83947h7.06742l1.77492,-1.83947v-2.12991h0.51634v2.25899c0,0.06454 -0.03227,0.12909 -0.06454,0.16136l-2.00082,1.96855c-0.03227,0.03227 -0.09681,0.09681 -0.16136,0.09681h-7.26105c-0.06454,0 -0.12909,-0.06454 -0.16136,-0.09681l-1.96855,-1.96855c-0.03227,-0.03227 -0.09681,-0.09681 -0.09681,-0.16136v-14.5221c0,-0.06454 0.06454,-0.12909 0.09681,-0.16136l1.96855,-1.96855c0.03227,-0.03227 0.09681,-0.09681 0.16136,-0.09681z" data-paper-data="{&quot;glyphName&quot;:&quot;C&quot;,&quot;glyphIndex&quot;:0,&quot;firstGlyphOfWord&quot;:true,&quot;word&quot;:1}" fill="#44d62c"></path><path d="M180.89495,276.18648c-0.54861,0 -1.06495,0.2259 -1.45221,0.61316l-2.42035,2.42035c-0.38726,0.38726 -0.61316,0.9036 -0.61316,1.45221v13.6185c0,0.54861 0.2259,1.06495 0.61316,1.45221l2.42035,2.42035c0.38726,0.38726 0.9036,0.61316 1.45221,0.61316h6.35745c0.54861,0 1.09723,-0.2259 1.48448,-0.61316l2.42035,-2.42035c0.38726,-0.38726 0.58088,-0.9036 0.58088,-1.45221v-13.6185c0,-0.54861 -0.19363,-1.06495 -0.58088,-1.45221l-2.42035,-2.42035c-0.38726,-0.38726 -0.93587,-0.61316 -1.48448,-0.61316zM187.2524,277.99367c0.06454,0 0.12909,0.03227 0.19363,0.09681l2.42035,2.42035c0.03227,0.03227 0.06454,0.06454 0.06454,0.16136v13.6185c0,0.09681 -0.03227,0.12909 -0.06454,0.16136l-2.42035,2.42035c-0.06454,0.06454 -0.12909,0.09681 -0.19363,0.09681h-6.35745c-0.06454,0 -0.12909,-0.06454 -0.16136,-0.09681l-2.42035,-2.42035c-0.03227,-0.03227 -0.09681,-0.09681 -0.09681,-0.16136v-13.6185c0,-0.06454 0.06454,-0.12909 0.09681,-0.16136l2.42035,-2.42035c0.03227,-0.03227 0.09681,-0.09681 0.16136,-0.09681zM189.41458,280.76901l-2.25899,-2.25899h-6.13155l-2.29126,2.22672v13.42487l2.29126,2.29126h6.16382l2.22672,-2.29126zM181.76628,280.31721h4.64707l1.19404,1.19404v11.90812l-1.19404,1.22631h-4.64707l-1.22631,-1.22631v-11.90812z" data-paper-data="{&quot;glyphName&quot;:&quot;O&quot;,&quot;glyphIndex&quot;:1,&quot;word&quot;:1}" fill="#44d62c"></path><path d="M238.3715,276.18648v22.58993h11.29497c0.54861,0 1.06495,-0.2259 1.45221,-0.61316l2.00082,-1.96855c0.38726,-0.38726 0.58088,-0.9036 0.58088,-1.45221v-14.5221c0,-0.54861 -0.19363,-1.06495 -0.58088,-1.45221l-2.00082,-1.96855c-0.38726,-0.38726 -0.9036,-0.61316 -1.45221,-0.61316zM240.17869,277.99367h9.48777c0.06454,0 0.12909,0.06454 0.16136,0.09681l2.00082,1.96855c0.03227,0.03227 0.06454,0.09681 0.06454,0.16136v14.5221c0,0.06454 -0.03227,0.12909 -0.06454,0.16136l-2.00082,1.96855c-0.03227,0.03227 -0.09681,0.09681 -0.16136,0.09681h-9.48777zM251.37684,280.34948l-1.77492,-1.83947h-8.90689v17.94286h8.90689l1.77492,-1.83947zM242.50223,280.31721h6.32518l0.74224,0.77451v12.77945l-0.74224,0.77451h-6.32518z" data-paper-data="{&quot;glyphName&quot;:&quot;D&quot;,&quot;glyphIndex&quot;:2,&quot;word&quot;:1}" fill="#44d62c"></path><path d="M312.26579,280.31721v-4.13073h-13.36033v22.58993h13.36033v-4.13073h-9.2296v-5.09887h9.2296v-4.13073h-9.2296v-5.09887zM300.71266,277.99367h9.74594v0.51634h-9.2296v8.71326h9.2296v0.51634h-9.2296v8.71326h9.2296v0.51634h-9.74594z" data-paper-data="{&quot;glyphName&quot;:&quot;E&quot;,&quot;glyphIndex&quot;:3,&quot;word&quot;:1}" fill="#44d62c"></path><path d="M359.05289,276.18648v22.58993h4.13073v-7.90648h4.03392l0.77451,0.58088l2.09764,7.32559h4.29209l-2.45262,-8.64872l1.87174,-1.83947c0.38726,-0.38726 0.58088,-0.9036 0.58088,-1.45221v-6.61562c0,-0.54861 -0.19363,-1.06495 -0.58088,-1.45221l-2.00082,-1.96855c-0.38726,-0.38726 -0.9036,-0.61316 -1.45221,-0.61316zM360.86008,277.99367h9.48777c0.09681,0 0.12909,0.03227 0.19363,0.06454l1.96855,2.00082c0.03227,0.03227 0.06454,0.09681 0.06454,0.16136v6.61562c0,0.06454 -0.03227,0.12909 -0.06454,0.16136l-1.96855,1.96855c-0.06454,0.06454 -0.12909,0.09681 -0.19363,0.09681h-1.67811l1.29085,0.96814c0.03227,0.03227 0.06454,0.06454 0.09681,0.12909l1.93628,6.80925h-0.54861l-1.87174,-6.58335l-1.77492,-1.32312h-6.422v7.90648h-0.51634zM372.05824,280.34948l-1.80719,-1.83947h-8.87462v10.03638h8.87462l1.80719,-1.83947zM363.18362,280.31721h6.32518l0.74224,0.77451v4.87297l-0.74224,0.77451h-6.32518z" data-paper-data="{&quot;glyphName&quot;:&quot;R&quot;,&quot;glyphIndex&quot;:4,&quot;word&quot;:1}" fill="#44d62c"></path><path d="M424.25806,276.18648c-0.54861,0 -1.06495,0.2259 -1.45221,0.61316l-1.96855,1.96855c-0.38726,0.38726 -0.61316,0.9036 -0.61316,1.45221v4.3889c0,0.4518 0.16136,0.9036 0.4518,1.25858l1.51675,1.93628c0.29044,0.35498 0.70997,0.61316 1.16177,0.74224l7.45468,1.74265l0.61316,0.80678v2.77533l-0.74224,0.77451h-5.55067l-0.77451,-0.77451v-3.19486h-4.13073v4.06619c0,0.54861 0.2259,1.06495 0.61316,1.45221l1.96855,1.96855c0.38726,0.38726 0.9036,0.61316 1.45221,0.61316h7.26105c0.54861,0 1.06495,-0.2259 1.45221,-0.61316l2.00082,-1.96855c0.38726,-0.38726 0.58088,-0.9036 0.58088,-1.45221v-4.3889c0,-0.4518 -0.16136,-0.9036 -0.4518,-1.25858l-1.51675,-1.93628c-0.29044,-0.35498 -0.6777,-0.61316 -1.1295,-0.74224l-7.45468,-1.74265l-0.64543,-0.80678v-2.77533l0.77451,-0.77451h5.55067l0.74224,0.77451v3.19486h4.13073v-4.06619c0,-0.54861 -0.19363,-1.06495 -0.58088,-1.45221l-2.00082,-1.96855c-0.38726,-0.38726 -0.9036,-0.61316 -1.45221,-0.61316zM431.51911,277.99367c0.06454,0 0.12909,0.06454 0.16136,0.09681l2.00082,1.96855c0.03227,0.03227 0.06454,0.09681 0.06454,0.16136v2.25899h-0.51634v-2.12991l-1.77492,-1.83947h-7.06742l-1.83947,1.83947v4.163l1.41994,1.77492l8.00329,1.87174c0.09681,0.03227 0.16136,0.06454 0.19363,0.12909l1.51675,1.93628c0.06454,0.06454 0.06454,0.09681 0.06454,0.12909v4.3889c0,0.06454 -0.03227,0.12909 -0.06454,0.16136l-2.00082,1.96855c-0.03227,0.03227 -0.09681,0.09681 -0.16136,0.09681h-7.26105c-0.06454,0 -0.12909,-0.06454 -0.16136,-0.09681l-1.96855,-1.96855c-0.03227,-0.03227 -0.09681,-0.09681 -0.09681,-0.16136v-2.25899h0.51634v2.12991l1.83947,1.83947h7.06742l1.77492,-1.83947v-4.13073l-1.38767,-1.80719l-8.03556,-1.87174c-0.09681,-0.03227 -0.16136,-0.09681 -0.19363,-0.12909l-1.51675,-1.93628c-0.03227,-0.03227 -0.06454,-0.09681 -0.06454,-0.12909v-4.3889c0,-0.06454 0.06454,-0.12909 0.09681,-0.16136l1.96855,-1.96855c0.03227,-0.03227 0.09681,-0.09681 0.16136,-0.09681z" data-paper-data="{&quot;glyphName&quot;:&quot;S&quot;,&quot;glyphIndex&quot;:5,&quot;lastGlyphOfWord&quot;:true,&quot;word&quot;:1}" fill="#44d62c"></path><path d="M81.40823,253.59654v-1.2048h387.18355v1.2048z" data-paper-data="{&quot;isContainerTopLineAboveSecondaryText&quot;:true}" fill="#44d62c"></path><path d="M81.40823,323.77594v-1.2048h387.18355v1.2048z" data-paper-data="{&quot;isContainerBottomLineBelowSecondaryText&quot;:true}" fill="#44d62c"></path></g><g data-paper-data="{&quot;isPrimaryText&quot;:true}"><path d="M109.97207,146.22406c-2.18671,0 -4.23674,0.82001 -5.7401,2.18671l-8.33681,7.10679c-1.64003,1.36669 -2.59671,3.28006 -2.87005,5.46676l-11.61687,80.9081h17.63031l3.28006,-22.27706h28.70051l3.14339,22.27706h17.63031l-3.69007,-26.5138l-7.79014,-54.3943c-0.27334,-2.18671 -1.36669,-4.10007 -3.00672,-5.46676l-8.20015,-7.10679c-1.64003,-1.36669 -3.69007,-2.18671 -5.7401,-2.18671zM113.25213,163.71771h6.83345l3.28006,2.87005l5.05676,35.53396h-23.64375l5.05676,-35.53396z" data-paper-data="{&quot;glyphName&quot;:&quot;A&quot;,&quot;glyphIndex&quot;:0,&quot;firstGlyphOfWord&quot;:true,&quot;word&quot;:1}" fill="#44d62c"></path><path d="M232.83758,146.22406h-17.49364v57.67436l-35.12396,-53.71095c-2.18671,-3.28006 -6.15011,-4.64675 -9.84017,-3.5534c-3.69007,1.09335 -6.28678,4.51008 -6.28678,8.33681v86.92154h17.49364v-57.67436l35.26063,53.71095c2.59671,3.82673 6.42345,4.64675 9.70351,3.5534c3.82673,-1.09335 6.28678,-4.51008 6.28678,-8.33681z" data-paper-data="{&quot;glyphName&quot;:&quot;N&quot;,&quot;glyphIndex&quot;:1,&quot;word&quot;:1}" fill="#44d62c"></path><path d="M263.58813,146.22406c-2.32337,0 -4.51008,0.95668 -6.15011,2.59671l-8.33681,8.33681c-1.64003,1.64003 -2.59671,3.82673 -2.59671,6.15011v18.587c0,1.91337 0.68335,3.82673 1.91337,5.33009l6.42345,8.20015c1.23002,1.50336 3.00672,2.59671 4.92009,3.14339l31.57056,7.38013l2.59671,3.41673v11.75354l-3.14339,3.28006h-23.50708l-3.28006,-3.28006v-13.53024h-17.49364v17.22031c0,2.32337 0.95668,4.51008 2.59671,6.15011l8.33681,8.33681c1.64003,1.64003 3.82673,2.59671 6.15011,2.59671h30.75055c2.32337,0 4.51008,-0.95668 6.15011,-2.59671l8.47348,-8.33681c1.64003,-1.64003 2.46004,-3.82673 2.46004,-6.15011v-18.587c0,-1.91337 -0.68335,-3.82673 -1.91337,-5.33009l-6.42345,-8.20015c-1.23002,-1.50336 -2.87005,-2.59671 -4.78342,-3.14339l-31.57056,-7.38013l-2.73338,-3.41673v-11.75354l3.28006,-3.28006h23.50708l3.14339,3.28006v13.53024h17.49364v-17.22031c0,-2.32337 -0.82001,-4.51008 -2.46004,-6.15011l-8.47348,-8.33681c-1.64003,-1.64003 -3.82673,-2.59671 -6.15011,-2.59671z" data-paper-data="{&quot;glyphName&quot;:&quot;S&quot;,&quot;glyphIndex&quot;:2,&quot;word&quot;:1}" fill="#44d62c"></path><path d="M344.08623,146.22406c-2.32337,0 -4.51008,0.95668 -6.15011,2.59671l-10.25018,10.25018c-1.64003,1.64003 -2.59671,3.82673 -2.59671,6.15011v57.67436c0,2.32337 0.95668,4.51008 2.59671,6.15011l10.25018,10.25018c1.64003,1.64003 3.82673,2.59671 6.15011,2.59671h26.92381c2.32337,0 4.64675,-0.95668 6.28678,-2.59671l10.25018,-10.25018c1.64003,-1.64003 2.46004,-3.82673 2.46004,-6.15011v-57.67436c0,-2.32337 -0.82001,-4.51008 -2.46004,-6.15011l-10.25018,-10.25018c-1.64003,-1.64003 -3.9634,-2.59671 -6.28678,-2.59671zM347.77629,163.71771h19.68035l5.05676,5.05676v50.4309l-5.05676,5.19343h-19.68035l-5.19343,-5.19343v-50.4309z" data-paper-data="{&quot;glyphName&quot;:&quot;O&quot;,&quot;glyphIndex&quot;:3,&quot;word&quot;:1}" fill="#44d62c"></path><path d="M403.67395,146.22406v95.66837h17.49364v-33.48393h17.08364l3.28006,2.46004l8.88349,31.02388h18.17699l-10.38685,-36.62732l7.92681,-7.79014c1.64003,-1.64003 2.46004,-3.82673 2.46004,-6.15011v-28.01716c0,-2.32337 -0.82001,-4.51008 -2.46004,-6.15011l-8.47348,-8.33681c-1.64003,-1.64003 -3.82673,-2.59671 -6.15011,-2.59671zM421.1676,163.71771h26.78714l3.14339,3.28006v20.63703l-3.14339,3.28006h-26.78714z" data-paper-data="{&quot;glyphName&quot;:&quot;R&quot;,&quot;glyphIndex&quot;:4,&quot;lastGlyphOfWord&quot;:true,&quot;word&quot;:1}" fill="#44d62c"></path></g></g></g><g class="watermark-group" style="opacity:0.040000010281801224"><path class="watermark-path" d="M129.52,370.3a11.88,11.88,0,0,1,2.58,5.58,12,12,0,0,1,.11,3,11.81,11.81,0,0,1-.64,2.93,12.34,12.34,0,0,1-1.41,2.72,11.65,11.65,0,0,1-2.13,2.32,12,12,0,0,1-2.64,1.69,13,13,0,0,1-2.91.9,12.47,12.47,0,0,1-3,.12,12.17,12.17,0,0,1-2.93-.64,11.8,11.8,0,0,1-2.72-1.38,12.19,12.19,0,0,1-4-4.79,11.85,11.85,0,0,1-.89-2.92,12.14,12.14,0,0,1-.13-3,11.54,11.54,0,0,1,.64-2.92,11.67,11.67,0,0,1,3.5-5,11.44,11.44,0,0,1,2.67-1.69,11.64,11.64,0,0,1,2.92-.91,10.71,10.71,0,0,1,3-.12,11.68,11.68,0,0,1,5.66,2,11.7,11.7,0,0,1,2.34,2.12m-1.4,8.76a13,13,0,0,1-1.22,2.32,9.68,9.68,0,0,1-1.81,2,7.44,7.44,0,0,1-2.38,1.37,6.17,6.17,0,0,1-5.11-.46,8.73,8.73,0,0,1-3.85-4.58,6.69,6.69,0,0,1-.34-2.66,6.09,6.09,0,0,1,.77-2.47,7.15,7.15,0,0,1,1.75-2.11,9.58,9.58,0,0,1,1.09-.81,8.23,8.23,0,0,1,1.12-.63,8.14,8.14,0,0,1,1.19-.46,12.71,12.71,0,0,1,1.32-.37l2,2.38a12.83,12.83,0,0,0-1.56.17,7.86,7.86,0,0,0-1.23.32,4.5,4.5,0,0,0-1,.49,6.41,6.41,0,0,0-.93.67,4.49,4.49,0,0,0-1.15,1.39,3.87,3.87,0,0,0-.45,1.58,4.12,4.12,0,0,0,.26,1.63,6.11,6.11,0,0,0,2.36,2.82,4.43,4.43,0,0,0,1.57.53,3.91,3.91,0,0,0,1.62-.17,4.71,4.71,0,0,0,1.57-.89,10.5,10.5,0,0,0,.83-.79,5.71,5.71,0,0,0,.65-.93,10.13,10.13,0,0,0,.54-1.14,12.24,12.24,0,0,0,.44-1.49l2,2.33m-14.46,4.55a8.86,8.86,0,0,0,2.78,2.22,9,9,0,0,0,3.29.94,9.15,9.15,0,0,0,3.39-.37,8.68,8.68,0,0,0,3.11-1.69,8.8,8.8,0,0,0,2.22-2.78,9.15,9.15,0,0,0,1-3.29,8.95,8.95,0,0,0-4.83-8.76,9,9,0,0,0-6.73-.57,9,9,0,0,0-5.33,4.47,8.94,8.94,0,0,0-.57,6.71,8.76,8.76,0,0,0,1.7,3.12"></path><path class="watermark-path" d="M147,349c-.48.12-1.09.31-1.82.57a24.37,24.37,0,0,0-2.4,1A28.35,28.35,0,0,0,140,352a20.72,20.72,0,0,0-2.71,1.94c-.7.59-1.28,1.11-1.74,1.57a15.07,15.07,0,0,0-1.1,1.22,4.09,4.09,0,0,0-.59.92,2.32,2.32,0,0,0-.22.64,1.16,1.16,0,0,0,0,.47,1.83,1.83,0,0,0,.18.29,1.15,1.15,0,0,0,1,.37,5.54,5.54,0,0,0,1.51-.38q.87-.35,1.95-.9l2.26-1.18q1.2-.65,2.49-1.29c.87-.44,1.73-.83,2.59-1.17a18.94,18.94,0,0,1,2.6-.81,9.27,9.27,0,0,1,2.46-.29,6.25,6.25,0,0,1,2.24.49,5.12,5.12,0,0,1,1.89,1.47,6.35,6.35,0,0,1,1.41,2.61,6,6,0,0,1,.09,2.6,8.3,8.3,0,0,1-.9,2.52,17.79,17.79,0,0,1-1.62,2.37,23.92,23.92,0,0,1-2,2.15c-.72.67-1.41,1.29-2.09,1.87a33.79,33.79,0,0,1-5.33,3.7,32.29,32.29,0,0,1-4.91,2.28l-3.61-4.3a21.38,21.38,0,0,0,5.39-1.87,27.2,27.2,0,0,0,5.4-3.56,21.59,21.59,0,0,0,2.38-2.27,8.67,8.67,0,0,0,1.18-1.7,2.32,2.32,0,0,0,.27-1.19,1.34,1.34,0,0,0-.28-.74,1.21,1.21,0,0,0-1-.42,4.32,4.32,0,0,0-1.55.34,15.77,15.77,0,0,0-2,.88c-.72.37-1.48.77-2.27,1.21l-2.45,1.3c-.85.45-1.7.85-2.56,1.21a22.37,22.37,0,0,1-2.54.86,10,10,0,0,1-2.43.32,5.76,5.76,0,0,1-2.2-.45,5,5,0,0,1-1.89-1.45,6.12,6.12,0,0,1-1.31-2.41,6,6,0,0,1-.1-2.41,8.28,8.28,0,0,1,.81-2.38,14.06,14.06,0,0,1,1.49-2.24,22.37,22.37,0,0,1,1.85-2.05q1-1,2-1.77c.7-.59,1.44-1.15,2.23-1.7s1.62-1.06,2.44-1.53,1.63-.91,2.43-1.3,1.58-.75,2.3-1L147,349"></path><path class="watermark-path" d="M186.76,337.57l-10.6-12.63,3.92,18.24-4.66,3.91-17.27-7,10.6,12.63-4.86,4.07-15.09-18,6.59-5.54,18.69,7.52-4.15-19.71,6.57-5.52,15.09,18-4.83,4.05"></path><path class="watermark-path" d="M208.84,313.24l-10,8.42,1.16,4.82L194.56,331l-5.68-25.89,5.42-4.55,24.51,10.09-5.42,4.55-4.55-2m-11.23,3.45,6.57-5.52-8.83-3.87,2.26,9.39"></path><path class="watermark-path" d="M227.49,281.38c-.48.12-1.09.31-1.82.57a24.37,24.37,0,0,0-2.4,1,26.11,26.11,0,0,0-2.7,1.47,20.72,20.72,0,0,0-2.71,1.94c-.7.59-1.28,1.11-1.74,1.57a13.39,13.39,0,0,0-1.1,1.22,4.29,4.29,0,0,0-.59.91,2.48,2.48,0,0,0-.22.65,1.16,1.16,0,0,0,0,.47,1.83,1.83,0,0,0,.18.29,1.15,1.15,0,0,0,1,.37,5.54,5.54,0,0,0,1.51-.38q.87-.34,2-.9l2.26-1.18q1.2-.64,2.49-1.29c.87-.44,1.73-.83,2.59-1.17a18.94,18.94,0,0,1,2.6-.81,9.27,9.27,0,0,1,2.46-.29,6.08,6.08,0,0,1,2.24.49,5.09,5.09,0,0,1,1.89,1.46,6.47,6.47,0,0,1,1.41,2.61,6.07,6.07,0,0,1,.09,2.61,8.3,8.3,0,0,1-.9,2.52,16.32,16.32,0,0,1-1.63,2.36,21.41,21.41,0,0,1-2,2.16c-.72.67-1.41,1.29-2.1,1.86a33.36,33.36,0,0,1-5.32,3.71,31.92,31.92,0,0,1-4.92,2.28l-3.6-4.3a21.38,21.38,0,0,0,5.39-1.87,27.2,27.2,0,0,0,5.4-3.56,21.59,21.59,0,0,0,2.38-2.27,8.67,8.67,0,0,0,1.18-1.7A2.32,2.32,0,0,0,231,293a1.34,1.34,0,0,0-.28-.74,1.21,1.21,0,0,0-1-.42,4.32,4.32,0,0,0-1.55.34,16.54,16.54,0,0,0-2,.88c-.71.37-1.47.77-2.26,1.21l-2.46,1.3c-.84.44-1.7.85-2.55,1.21a24.53,24.53,0,0,1-2.54.86A10,10,0,0,1,214,298a5.76,5.76,0,0,1-2.2-.45,5,5,0,0,1-1.89-1.45,6.12,6.12,0,0,1-1.31-2.41,5.78,5.78,0,0,1-.1-2.41,8,8,0,0,1,.81-2.38,14.61,14.61,0,0,1,1.49-2.25,22.26,22.26,0,0,1,1.85-2q1-1,2-1.77c.7-.59,1.44-1.15,2.23-1.7s1.62-1.06,2.44-1.53,1.63-.91,2.43-1.31,1.58-.74,2.3-1l3.5,4.16"></path><path class="watermark-path" d="M261.64,274.74l-6.29-7.5L243,277.61l6.3,7.5-4.86,4.07-15.09-18,4.85-4.08,5.49,6.55L252,263.3l-5.49-6.55,4.86-4.07,15.09,18-4.86,4.08"></path><path class="watermark-path" d="M272.18,265.9l-15.09-18,4.86-4.08,15.09,18-4.86,4.08"></path><path class="watermark-path" d="M299.65,242.85l-22.51-2.18L287.51,253l-4.85,4.08-15.1-18,5.28-4.43,22.56,2.22L285,224.5l4.83-4.06,15.09,18-5.26,4.42"></path><path class="watermark-path" d="M306.68,205.52a31.88,31.88,0,0,1,5.29-3.66,34.48,34.48,0,0,1,5.14-2.35l3.69,4.39a20.77,20.77,0,0,0-2.37.61,20.47,20.47,0,0,0-2.61,1,25.12,25.12,0,0,0-2.76,1.49,23.9,23.9,0,0,0-2.8,2,20.42,20.42,0,0,0-2.8,2.77,12.77,12.77,0,0,0-1.64,2.52,7,7,0,0,0-.68,2.24,6,6,0,0,0,.66,3.64,8.16,8.16,0,0,0,.94,1.38,9.12,9.12,0,0,0,1.08,1.07,6.39,6.39,0,0,0,1.47.91,6.73,6.73,0,0,0,1.88.48,6.54,6.54,0,0,0,2.28-.18,11.67,11.67,0,0,0,2.74-1.07,19.38,19.38,0,0,0,3.18-2.22c.57-.48,1.06-.92,1.46-1.31a14.57,14.57,0,0,0,1-1.13,11.46,11.46,0,0,0,.81-1.05l.74-1.09-1.82-2.17-5.45,4.57-3.31-3.94,10.31-8.65,7.71,9.19a29,29,0,0,1-1.67,2.43q-1,1.26-2.1,2.52c-.74.84-1.5,1.65-2.3,2.44s-1.58,1.5-2.33,2.14a31,31,0,0,1-3.59,2.61,22.55,22.55,0,0,1-3.64,1.83,15.64,15.64,0,0,1-3.63.89,10.72,10.72,0,0,1-3.49-.15,10.45,10.45,0,0,1-3.28-1.33,12.54,12.54,0,0,1-3-2.67,12,12,0,0,1-2.08-3.44,10.45,10.45,0,0,1-.71-3.5,11.14,11.14,0,0,1,.51-3.51,15.72,15.72,0,0,1,1.56-3.43,21.62,21.62,0,0,1,2.42-3.28,30.3,30.3,0,0,1,3.15-3"></path><path class="watermark-path" d="M336.91,211.59l-15.1-18,4.86-4.08,11.79,14,13.13-11,3.31,3.94-18,15.1"></path><path class="watermark-path" d="M374.54,164.71a12.28,12.28,0,0,1,2.59,4.81,10.44,10.44,0,0,1,0,5,14.62,14.62,0,0,1-2.33,5,25.55,25.55,0,0,1-4.56,4.85,26.07,26.07,0,0,1-5.6,3.67,14.79,14.79,0,0,1-5.38,1.43,10.43,10.43,0,0,1-4.94-.89,13.24,13.24,0,0,1-6.87-8.18,10.48,10.48,0,0,1,0-5,14.51,14.51,0,0,1,2.36-5,25.23,25.23,0,0,1,4.57-4.89,25,25,0,0,1,5.59-3.64,14.45,14.45,0,0,1,5.35-1.43,10.31,10.31,0,0,1,4.93.92,12.22,12.22,0,0,1,4.28,3.38m-4.91,4.11a8.36,8.36,0,0,0-2-1.72,5.5,5.5,0,0,0-2.65-.85,7.72,7.72,0,0,0-3.32.57,14.49,14.49,0,0,0-4,2.52,16.72,16.72,0,0,0-2.38,2.4,10.15,10.15,0,0,0-1.39,2.24,6.71,6.71,0,0,0-.56,2.1,5.69,5.69,0,0,0,.1,1.9,6.21,6.21,0,0,0,.61,1.69,9.85,9.85,0,0,0,1,1.44,10.48,10.48,0,0,0,1.26,1.23,6.67,6.67,0,0,0,1.57.92,6.1,6.1,0,0,0,1.85.41,6.8,6.8,0,0,0,2.15-.2,11.06,11.06,0,0,0,2.45-1,17.67,17.67,0,0,0,2.77-1.94,14.39,14.39,0,0,0,3.18-3.52,7.74,7.74,0,0,0,1.14-3.17,5.54,5.54,0,0,0-.37-2.74,8.52,8.52,0,0,0-1.36-2.3"></path><path class="watermark-path" d="M382.66,141.76A32.3,32.3,0,0,1,388,138.1a34.12,34.12,0,0,1,5.15-2.35l3.69,4.4a19.62,19.62,0,0,0-2.37.6,22.08,22.08,0,0,0-2.61,1,26,26,0,0,0-2.77,1.49,23.9,23.9,0,0,0-2.8,2,21,21,0,0,0-2.8,2.78,13.19,13.19,0,0,0-1.64,2.51,7.29,7.29,0,0,0-.68,2.24,6.36,6.36,0,0,0,.06,2,5.8,5.8,0,0,0,.61,1.68,8.12,8.12,0,0,0,.93,1.38,9.16,9.16,0,0,0,1.08,1.08,6.56,6.56,0,0,0,1.48.9,6,6,0,0,0,1.87.48,6.76,6.76,0,0,0,2.28-.17,12,12,0,0,0,2.74-1.08,18.57,18.57,0,0,0,3.18-2.22c.58-.48,1.06-.92,1.46-1.31s.75-.77,1.05-1.12.57-.72.81-1.06l.73-1.09-1.82-2.17-5.45,4.57-3.3-3.94,10.3-8.65,7.71,9.19a29,29,0,0,1-1.67,2.43q-1,1.26-2.1,2.52c-.73.84-1.5,1.66-2.3,2.44s-1.57,1.5-2.33,2.14a31,31,0,0,1-3.59,2.61,22.15,22.15,0,0,1-3.64,1.83,15.56,15.56,0,0,1-3.62.89,11,11,0,0,1-3.49-.14,10.84,10.84,0,0,1-3.28-1.33,12.82,12.82,0,0,1-3-2.68,12.12,12.12,0,0,1-2.08-3.43A10.71,10.71,0,0,1,375,155a11.18,11.18,0,0,1,.51-3.51,15.51,15.51,0,0,1,1.57-3.43,21.44,21.44,0,0,1,2.42-3.28,30.19,30.19,0,0,1,3.14-3"></path><path class="watermark-path" d="M428.63,119.31a12.26,12.26,0,0,1,2.59,4.82,10.44,10.44,0,0,1,0,5,14.53,14.53,0,0,1-2.34,5,25.29,25.29,0,0,1-4.56,4.86,26,26,0,0,1-5.59,3.67,14.84,14.84,0,0,1-5.38,1.43,10.61,10.61,0,0,1-4.95-.89,12.15,12.15,0,0,1-4.3-3.37,12,12,0,0,1-2.56-4.81,10.48,10.48,0,0,1,0-5,14.39,14.39,0,0,1,2.35-5,27.89,27.89,0,0,1,10.16-8.53,14.49,14.49,0,0,1,5.36-1.43,10.27,10.27,0,0,1,4.92.92,12.21,12.21,0,0,1,4.28,3.37m-4.91,4.12a8.17,8.17,0,0,0-2-1.72,5.58,5.58,0,0,0-2.65-.86,7.86,7.86,0,0,0-3.31.58,14.49,14.49,0,0,0-4,2.52,16.21,16.21,0,0,0-2.38,2.4,9.85,9.85,0,0,0-1.4,2.24,7,7,0,0,0-.56,2.1,6,6,0,0,0,.1,1.9,6.23,6.23,0,0,0,.62,1.69,8.49,8.49,0,0,0,1,1.44,9.18,9.18,0,0,0,1.26,1.23,6.67,6.67,0,0,0,1.57.92,6,6,0,0,0,1.84.41,6.86,6.86,0,0,0,2.16-.2,11.26,11.26,0,0,0,2.45-1,17.62,17.62,0,0,0,2.76-1.94,14.67,14.67,0,0,0,3.19-3.52,7.71,7.71,0,0,0,1.13-3.17,5.53,5.53,0,0,0-.36-2.74,8.55,8.55,0,0,0-1.37-2.3"></path></g></svg>
